<svg version="1.2" xmlns="http://www.w3.org/2000/svg" viewBox="0 0 72 72" width="72" height="72">
	<title>Fija-warn-svg</title>
	<path id="Forma 1 copy 3" fill="#FF073A" d="m36 72c-19.9 0-36-16.1-36-36 0-19.9 16.1-36 36-36 19.9 0 36 16.1 36 36 0 19.9-16.1 36-36 36z"/>
	<path  fill="#ffffff" d="m36.5 64c-15.2 0-27.5-12.3-27.5-27.5 0-15.2 12.3-27.5 27.5-27.5 15.2 0 27.5 12.3 27.5 27.5 0 15.2-12.3 27.5-27.5 27.5zm-22.1-37l12.8 5.1c1-2.1 2.8-3.9 4.9-4.9l-5.1-12.8c-5.7 2.4-10.2 6.9-12.6 12.6zm31.6-12.6l-5.1 12.8c2.1 1 3.9 2.8 4.9 4.9l12.8-5.1c-2.4-5.7-6.9-10.2-12.6-12.6zm-2.6 22.1c0-3.8-3.1-6.9-6.9-6.9-3.8 0-6.9 3.1-6.9 6.9 0 3.8 3.1 6.9 6.9 6.9 3.8 0 6.9-3.1 6.9-6.9zm-16.4 22.1l5.1-12.8c-2.1-1-3.9-2.8-4.9-4.9l-12.8 5.1c2.4 5.7 6.9 10.2 12.6 12.6zm31.6-12.6l-12.8-5.1c-1 2.1-2.8 3.9-4.9 4.9l5.1 12.8c5.7-2.4 10.2-6.9 12.6-12.6z"/>
</svg>