<svg version="1.2" xmlns="http://www.w3.org/2000/svg" viewBox="0 0 72 72" width="72" height="72">
	<title>Fija-warn-svg</title>
	<path id="Forma 1 copy 3" fill="#9E9E9E" d="m36 72c-19.9 0-36-16.1-36-36 0-19.9 16.1-36 36-36 19.9 0 36 16.1 36 36 0 19.9-16.1 36-36 36z"/>
	<path  fill="#ffffff" d="m64.5 22.2v12.2q0.1 0.6-0.3 1.1c-0.1-0.3-0.8-1-0.8-1-1.2-1.6-12.8-5.2-26.6-5.2-13.8 0-25.3 3.5-26.7 5.2 0 0-0.6 0.7-0.8 1q-0.3-0.5-0.3-1.1v-12.2c0-3.6 14-7.2 27.8-7.2 13.7 0 27.7 3.6 27.7 7.2zm-27.7 9.4q0.7 0 1.4 0c12 0.2 21.9 3.1 23.5 4.3l0.3 0.2c0.2 0.2 0.3 0.4 0.3 0.5 0 0 0 0.4 0 0.4-1 13.1-12.1 23.6-25.5 23.6-13.4 0-24.5-10.4-25.6-23.6 0 0 0-0.4 0-0.4 0.1-0.1 0.1-0.3 0.4-0.5l0.2-0.2c1.7-1.2 11.6-4.1 23.6-4.3q0.7 0 1.4 0zm-8.9 11.2v8.8c0 1.4 4 4.5 8.9 4.5 4.9 0 8.9-3 8.9-4.5v-8.8c0-4.9-4-8.9-8.9-8.9-4.9 0-8.9 4-8.9 8.9zm8.9 7.8c-1.9 0-3.4-1.5-3.4-3.4 0-1.8 1.5-3.3 3.4-3.3 1.8 0 3.3 1.5 3.3 3.3 0 1.9-1.5 3.4-3.3 3.4z"/>
</svg>