<svg version="1.2" xmlns="http://www.w3.org/2000/svg" viewBox="0 0 72 72" width="72" height="72">
	<title>svgviewer-output-svg</title>
	<path id="Forma 1 copy" fill="#ff073a" d="m36 72c-19.9 0-36-16.1-36-36 0-19.9 16.1-36 36-36 19.9 0 36 16.1 36 36 0 19.9-16.1 36-36 36z"/>
	<path  fill="#ffffff" d="m59.4 44.1q0.2-0.6 0.6-1.1 0.3-0.4 0.9-0.7 0.5-0.3 1.1-0.4v14.1q-0.6-0.1-1.1-0.4-0.6-0.3-0.9-0.8-0.4-0.4-0.6-1-0.2-0.6-0.2-1.2v-1.3h-9.7l-12.6-12.5-8.2 2.6-17.7-10q0.1-0.2 0.2-0.4 0.1-0.2 0.2-0.3 0.2-0.2 0.4-0.3 0.2-0.1 0.4-0.2l43.5-14.1q0.4-0.1 0.7-0.1 0.4 0 0.7 0.2 0.3 0.2 0.5 0.4 0.3 0.3 0.4 0.6l3.7 11.6q0.2 0.4 0.1 0.7 0 0.4-0.2 0.7-0.1 0.3-0.4 0.5-0.3 0.3-0.6 0.4l-19.2 6.2 9.8 9.8h8v-1.9q0-0.6 0.2-1.1zm-47.8-9.9l14.5 8.1-3.4 1-9.9-5.5zm30.2-8.9l12.6-4.1c0.4-0.1 0.6-0.6 0.4-1.2-0.3-0.5-0.7-0.8-1-0.7l-12.7 4c-0.3 0.2-0.5 0.7-0.3 1.2 0.2 0.6 0.7 0.9 1 0.8z"/>
</svg>