<svg version="1.2" xmlns="http://www.w3.org/2000/svg" viewBox="0 0 72 72" width="72" height="72">
	<title>Fija-warn-svg</title>
	<path id="Forma 1 copy 3" fill="#00aaff" d="m36 72c-19.9 0-36-16.1-36-36 0-19.9 16.1-36 36-36 19.9 0 36 16.1 36 36 0 19.9-16.1 36-36 36z"/>
	<path  fill="#ffffff" d="m46.6 12c3.8 0 7.1 2.6 8 6.3l1 3.9h2.3c1 0 1.8 0.7 1.9 1.6v0.3c0 1-0.7 1.8-1.6 1.9h-0.3-1.4l0.6 2.1c1.6 1 2.7 2.8 2.7 4.9v21.6c0 2.5-2 4.5-4.4 4.5h-3.9c-2.4 0-4.4-2-4.4-4.5v-3.1h-20.4v3.1c0 2.5-2 4.5-4.4 4.5h-3.8c-2.5 0-4.5-2-4.5-4.5v-21.6c0-2.1 1.1-3.9 2.8-4.9l0.5-2.1h-1.4c-1 0-1.8-0.7-1.9-1.6v-0.3c0-1 0.7-1.8 1.7-1.9h0.2 2.3l1-3.9c0.9-3.7 4.2-6.3 8-6.3zm-23.6 39.5h-5.1v3.1c0 0.4 0.3 0.7 0.6 0.7h3.8c0.4 0 0.7-0.3 0.7-0.7zm33.1 0h-5.1v3.2c0 0.4 0.3 0.6 0.6 0.6h3.8c0.4 0 0.7-0.2 0.7-0.6zm-14.7-11.5h-8.9l-0.2 0.1c-1 0.1-1.7 0.9-1.7 1.9 0 0.9 0.7 1.7 1.7 1.8l0.2 0.1h8.9l0.3-0.1c0.9-0.1 1.6-0.9 1.6-1.8 0-1.1-0.8-2-1.9-2zm8.3-5c-1.4 0-2.5 1.1-2.5 2.5 0 1.4 1.1 2.5 2.5 2.5 1.4 0 2.5-1.1 2.5-2.5 0-1.4-1.1-2.5-2.5-2.5zm-25.5 0c-1.4 0-2.5 1.1-2.5 2.5 0 1.4 1.1 2.5 2.5 2.5 1.4 0 2.6-1.1 2.6-2.5 0-1.4-1.2-2.5-2.6-2.5zm22.4-19.1h-19.3c-2 0-3.8 1.4-4.3 3.3l-2 8.1h32l-2-8.1c-0.5-1.9-2.3-3.3-4.4-3.3z"/>
</svg>